<svg xmlns="http://www.w3.org/2000/svg" width="13" height="13" viewBox="0 0 13 13">
  <g id="Group_18774" data-name="Group 18774" transform="translate(-42 -483)">
    <path id="Info_Square" data-name="Info Square" d="M14.163,4.612A3.564,3.564,0,0,1,17.842,8.46v5.311a3.562,3.562,0,0,1-3.679,3.841H8.527a3.567,3.567,0,0,1-3.685-3.841V8.46A3.569,3.569,0,0,1,8.527,4.612Zm-2.827,5.513a.571.571,0,0,0-.565.572V13.57a.569.569,0,0,0,1.137,0V10.7A.572.572,0,0,0,11.335,10.125Zm.013-2.06a.569.569,0,1,0,.565.572A.569.569,0,0,0,11.348,8.065Z" transform="translate(37.158 478.388)" fill="#979797"/>
  </g>
</svg>
