<svg xmlns="http://www.w3.org/2000/svg" width="81.259" height="103.329" viewBox="0 0 81.259 103.329">
  <g id="Group_18806" data-name="Group 18806" transform="translate(-146.871 -34.996)">
    <g id="Group_18755" data-name="Group 18755" transform="translate(92.192 34.996)">
      <g id="Group_18753" data-name="Group 18753" transform="translate(54.679 0)">
        <path id="Path_31221" data-name="Path 31221" d="M61.918,158.793l6.123-2.2a5.4,5.4,0,0,1,6.99,3.512l1.887,6.228a5.4,5.4,0,0,0,9.984.858l33.947-67.565L89.218,83.73,55.271,151.295A5.4,5.4,0,0,0,61.918,158.793Z" transform="translate(-54.679 -66.832)" fill="#0060af"/>
        <path id="Path_31222" data-name="Path 31222" d="M188.372,158.792l-6.122-2.205a5.4,5.4,0,0,0-6.989,3.512l-1.886,6.228a5.4,5.4,0,0,1-9.984.859l-9.308-18.525L129.442,99.622l31.632-15.894L186.885,135.1l8.135,16.191a5.4,5.4,0,0,1-6.648,7.5Z" transform="translate(-114.354 -66.83)" fill="rgba(0,96,175,0.83)"/>
        <path id="Path_31223" data-name="Path 31223" d="M186.885,135.1a44.157,44.157,0,0,1-31.9,13.569c-.3,0-.6,0-.9-.01l-24.641-49.04,31.632-15.894Z" transform="translate(-114.354 -66.83)" fill="#04569a"/>
        <path id="Path_31227" data-name="Path 31227" d="M37.55,0A37.55,37.55,0,1,1,0,37.55,37.55,37.55,0,0,1,37.55,0Z" transform="translate(3.08)" fill="#d3a286"/>
        <path id="Path_31224" data-name="Path 31224" d="M110.745,74.96q-1.61.139-3.258.14a37.55,37.55,0,0,1,0-75.1q1.647,0,3.258.14a37.551,37.551,0,0,0,0,74.819Z" transform="translate(-66.858 -0.001)" fill="rgba(154,113,95,0.78)"/>
        <circle id="Ellipse_1798" data-name="Ellipse 1798" cx="28.3" cy="28.3" r="28.3" transform="translate(12.33 9.25)" fill="#c28d6e"/>
        <path id="Path_31225" data-name="Path 31225" d="M271.7,74.133a28.3,28.3,0,0,1-28.3,28.3,28.587,28.587,0,0,1-3.186-.178,28.3,28.3,0,0,0,0-56.243,28.586,28.586,0,0,1,3.186-.178A28.3,28.3,0,0,1,271.7,74.133Z" transform="translate(-202.77 -36.583)" fill="rgba(132,95,79,0.96)"/>
        <g id="Group_18752" data-name="Group 18752" transform="translate(22.303 19.971)">
          <path id="Path_31226" data-name="Path 31226" d="M186.247,100.653l3.3,6.7a3.045,3.045,0,0,0,2.293,1.666l7.389,1.074a3.045,3.045,0,0,1,1.688,5.194l-5.346,5.211a3.045,3.045,0,0,0-.876,2.7l1.262,7.359a3.045,3.045,0,0,1-4.418,3.21l-6.609-3.474a3.045,3.045,0,0,0-2.834,0l-6.608,3.474a3.045,3.045,0,0,1-4.418-3.21l1.262-7.359a3.045,3.045,0,0,0-.876-2.7l-5.346-5.211a3.045,3.045,0,0,1,1.688-5.194l7.389-1.074a3.045,3.045,0,0,0,2.293-1.666l3.3-6.7a3.045,3.045,0,0,1,5.461,0Z" transform="translate(-165.19 -98.956)" fill="#ffe8db"/>
        </g>
      </g>
    </g>
  </g>
</svg>
