<svg xmlns="http://www.w3.org/2000/svg" width="16.667" height="16.667" viewBox="0 0 16.667 16.667">
  <g id="Group_18824" data-name="Group 18824" transform="translate(-41.667 -681.667)">
    <g id="Group_18792" data-name="Group 18792">
      <g id="_1._Icons_Fill_2_User" data-name="1. Icons / Fill /  2 User" transform="translate(41.667 681.667)">
        <path id="Shape" d="M8.333,16.667a8.3,8.3,0,0,1-4.1-1.085,1.832,1.832,0,0,0-.922-.353,1.011,1.011,0,0,0-.319.053l-1.684.5a.628.628,0,0,1-.188.03.516.516,0,0,1-.417-.2.54.54,0,0,1-.078-.481l.559-1.87a.872.872,0,0,0-.058-.751A8.805,8.805,0,0,1,0,8.346,8.465,8.465,0,0,1,2.359,2.527,8.241,8.241,0,0,1,8.35,0a8.221,8.221,0,0,1,5.933,2.5,8.381,8.381,0,0,1,1.75,2.652,8.241,8.241,0,0,1,.634,3.173,8.449,8.449,0,0,1-.721,3.477,8,8,0,0,1-1.9,2.628A8.537,8.537,0,0,1,8.333,16.667Zm3.825-9.38a1.068,1.068,0,1,0,1.066,1.068A1.068,1.068,0,0,0,12.158,7.286Zm-3.858,0h0a1.037,1.037,0,0,0-.741.313,1.057,1.057,0,0,0-.309.747,1.067,1.067,0,1,0,1.066-1.06H8.3Zm-3.825,0A1.068,1.068,0,1,0,5.542,8.354,1.069,1.069,0,0,0,4.475,7.286Z" transform="translate(0 0)" fill="#0060af"/>
      </g>
    </g>
  </g>
</svg>
