<svg id="coupon" xmlns="http://www.w3.org/2000/svg" width="24.204" height="15.6" viewBox="0 0 24.204 15.6">
  <g id="Group_28" data-name="Group 28" transform="translate(11.44 2.836)">
    <g id="Group_27" data-name="Group 27">
      <path id="Path_50" data-name="Path 50" d="M244.127,151a2.127,2.127,0,1,0,2.127,2.127A2.13,2.13,0,0,0,244.127,151Zm0,2.836a.709.709,0,1,1,.709-.709A.71.71,0,0,1,244.127,153.836Z" transform="translate(-242 -151)"/>
    </g>
  </g>
  <g id="Group_30" data-name="Group 30" transform="translate(17.113 8.509)">
    <g id="Group_29" data-name="Group 29">
      <path id="Path_51" data-name="Path 51" d="M364.127,271a2.127,2.127,0,1,0,2.127,2.127A2.13,2.13,0,0,0,364.127,271Zm0,2.836a.709.709,0,1,1,.709-.709A.71.71,0,0,1,364.127,273.836Z" transform="translate(-362 -271)"/>
    </g>
  </g>
  <g id="Group_32" data-name="Group 32" transform="translate(12.858 2.836)">
    <g id="Group_31" data-name="Group 31">
      <path id="Path_52" data-name="Path 52" d="M278.774,151.118a.709.709,0,0,0-.983.2l-5.673,8.509a.709.709,0,1,0,1.18.787l5.673-8.509A.709.709,0,0,0,278.774,151.118Z" transform="translate(-271.999 -150.999)"/>
    </g>
  </g>
  <g id="Group_34" data-name="Group 34" transform="translate(0 0)">
    <g id="Group_33" data-name="Group 33">
      <path id="Path_53" data-name="Path 53" d="M23.495,91H.709A.709.709,0,0,0,0,91.709v4.255a.709.709,0,0,0,.709.709,2.127,2.127,0,1,1,0,4.255.709.709,0,0,0-.709.709v4.255a.709.709,0,0,0,.709.709H23.495a.709.709,0,0,0,.709-.709V91.709A.709.709,0,0,0,23.495,91Zm-.709,14.182H7.091v-.709a.709.709,0,1,0-1.418,0v.709H1.418v-2.908a3.546,3.546,0,0,0,0-6.949V92.418H5.732v.709a.709.709,0,1,0,1.418,0v-.709H22.786Z" transform="translate(0 -91)"/>
    </g>
  </g>
  <g id="Group_36" data-name="Group 36" transform="translate(5.673 8.509)">
    <g id="Group_35" data-name="Group 35">
      <path id="Path_54" data-name="Path 54" d="M120.709,271a.709.709,0,0,0-.709.709v1.418a.709.709,0,1,0,1.418,0v-1.418A.709.709,0,0,0,120.709,271Z" transform="translate(-120 -271)"/>
    </g>
  </g>
  <g id="Group_38" data-name="Group 38" transform="translate(5.673 4.255)">
    <g id="Group_37" data-name="Group 37">
      <path id="Path_55" data-name="Path 55" d="M120.709,181a.709.709,0,0,0-.709.709v1.418a.709.709,0,1,0,1.418,0v-1.418A.709.709,0,0,0,120.709,181Z" transform="translate(-120 -181)"/>
    </g>
  </g>
</svg>
