<svg xmlns="http://www.w3.org/2000/svg" width="22.315" height="22.519" viewBox="0 0 22.315 22.519">
  <path id="discount" d="M11.248.264a3.021,3.021,0,0,0-2.088.882L8.036,2.27H5.274A3.034,3.034,0,0,0,2.259,5.285v2.76L1.142,9.171a3.026,3.026,0,0,0,0,4.257l1.117,1.124v2.762a3.034,3.034,0,0,0,3.015,3.015H8.036L9.16,21.446a3.026,3.026,0,0,0,4.257,0l1.126-1.117H17.3a3.034,3.034,0,0,0,3.015-3.015V14.552l1.124-1.124a3.026,3.026,0,0,0,0-4.257L20.318,8.045V5.285A3.034,3.034,0,0,0,17.3,2.27h-2.76L13.417,1.146A3,3,0,0,0,11.248.264Zm.029,2.006a.994.994,0,0,1,.719.3l1.42,1.414a1,1,0,0,0,.711.3H17.3A1,1,0,0,1,18.31,5.283V8.46a1,1,0,0,0,.3.711l1.414,1.42a.984.984,0,0,1,0,1.414l-1.414,1.422a1,1,0,0,0-.3.711v3.175A1,1,0,0,1,17.3,18.322H14.128a1,1,0,0,0-.711.29L12,20.032a.984.984,0,0,1-1.414,0L9.16,18.611a1,1,0,0,0-.711-.29H5.274a1,1,0,0,1-1.007-1.007V14.139a1,1,0,0,0-.29-.711l-1.42-1.422a.984.984,0,0,1,0-1.414l1.42-1.42a1,1,0,0,0,.29-.711V5.283A1,1,0,0,1,5.274,4.276H8.449a1,1,0,0,0,.711-.3l1.422-1.414A1.006,1.006,0,0,1,11.278,2.27Zm3,5a1,1,0,0,0-.69.3L7.567,13.6A1.006,1.006,0,0,0,8.99,15.021L15.009,9a1,1,0,0,0-.733-1.726Zm-6,.012a1,1,0,1,0,1,1A1,1,0,0,0,8.281,7.287ZM14.3,13.3a1,1,0,1,0,1,1A1,1,0,0,0,14.3,13.3Z" transform="translate(-0.135 -0.132)" fill="#adb5bd" stroke="#fff" stroke-width="0.265"/>
</svg>
