<svg xmlns="http://www.w3.org/2000/svg" width="16.842" height="16" viewBox="0 0 16.842 16">
  <path id="Vector" d="M11.663,0a4.919,4.919,0,0,1,1.566.244c3.108,1.011,4.228,4.421,3.293,7.4a10.718,10.718,0,0,1-2.534,4.05,32.384,32.384,0,0,1-5.331,4.177L8.446,16l-.219-.136a32.078,32.078,0,0,1-5.363-4.177A10.891,10.891,0,0,1,.328,7.646C-.623,4.665.5,1.255,3.639.227A3.806,3.806,0,0,1,4.387.051h.1A4.883,4.883,0,0,1,5.2,0h.093A5.253,5.253,0,0,1,6.83.278h.05a.294.294,0,0,1,.076.05,2.969,2.969,0,0,1,.531.22l.32.143a2.23,2.23,0,0,1,.239.159c.048.035.09.066.123.085L8.21.959a2.053,2.053,0,0,1,.211.135A5.274,5.274,0,0,1,11.663,0ZM13.9,6.063a.693.693,0,0,0,.665-.641v-.1a2.779,2.779,0,0,0-1.777-2.661.674.674,0,0,0-.851.421.689.689,0,0,0,.421.867,1.41,1.41,0,0,1,.9,1.322V5.3a.724.724,0,0,0,.16.522A.706.706,0,0,0,13.9,6.063Z" fill="#0060af"/>
</svg>
