<svg xmlns="http://www.w3.org/2000/svg" width="12.536" height="13.5" viewBox="0 0 12.536 13.5">
  <g id="Icon_ionic-ios-gift" data-name="Icon ionic-ios-gift" transform="translate(-3.375 -2.25)">
    <path id="Path_31233" data-name="Path 31233" d="M14.946,5.384h-2.54a1.77,1.77,0,0,0,.612-1.326,1.858,1.858,0,0,0-1.9-1.808,1.681,1.681,0,0,0-1.474.826A1.681,1.681,0,0,0,8.169,2.25a1.858,1.858,0,0,0-1.9,1.808A1.76,1.76,0,0,0,6.88,5.384H4.339a.963.963,0,0,0-.964.964v.6a.121.121,0,0,0,.121.121H15.79a.121.121,0,0,0,.121-.121v-.6A.963.963,0,0,0,14.946,5.384Zm-3.83-2.29a.991.991,0,0,1,1.016.964.991.991,0,0,1-1.016.964H10.1C10.1,3.576,10.556,3.094,11.116,3.094Zm-2.947,0c.56,0,1.016.482,1.016,1.929H8.169a.991.991,0,0,1-1.016-.964A.991.991,0,0,1,8.169,3.094Z" fill="#fff"/>
    <path id="Path_31234" data-name="Path 31234" d="M4.5,15.569v6.69a.967.967,0,0,0,.964.964h4.4v-7.9H4.741A.242.242,0,0,0,4.5,15.569Z" transform="translate(-0.643 -7.473)" fill="#fff"/>
    <path id="Path_31235" data-name="Path 31235" d="M24.107,15.328H18.984v7.9h4.4a.967.967,0,0,0,.964-.964v-6.69A.242.242,0,0,0,24.107,15.328Z" transform="translate(-8.92 -7.473)" fill="#fff"/>
  </g>
</svg>
