<svg xmlns="http://www.w3.org/2000/svg" width="82.118" height="104.421" viewBox="0 0 82.118 104.421">
  <g id="Group_18805" data-name="Group 18805" transform="translate(-266.118 -176)">
    <g id="Group_18800" data-name="Group 18800" transform="translate(211.439 176)">
      <g id="Group_18753" data-name="Group 18753" transform="translate(54.679 0)">
        <path id="Path_31221" data-name="Path 31221" d="M61.995,159.587l6.188-2.227a5.452,5.452,0,0,1,7.064,3.549l1.907,6.294a5.452,5.452,0,0,0,10.089.867l34.306-68.279L89.583,83.73,55.277,152.009A5.452,5.452,0,0,0,61.995,159.587Z" transform="translate(-54.679 -66.653)" fill="#0060af"/>
        <path id="Path_31222" data-name="Path 31222" d="M189,159.586l-6.187-2.228a5.452,5.452,0,0,0-7.063,3.549l-1.906,6.294a5.452,5.452,0,0,1-10.09.868l-9.406-18.72-24.9-49.558,31.966-16.062,26.084,51.918,8.221,16.363A5.452,5.452,0,0,1,189,159.586Z" transform="translate(-114.194 -66.652)" fill="#2675b7"/>
        <path id="Path_31223" data-name="Path 31223" d="M187.493,135.646a44.624,44.624,0,0,1-32.24,13.712c-.3,0-.606,0-.909-.01l-24.9-49.558,31.966-16.062Z" transform="translate(-114.194 -66.652)" fill="#04569a"/>
        <circle id="Ellipse_1797" data-name="Ellipse 1797" cx="37.947" cy="37.947" r="37.947" transform="translate(3.112)" fill="#ffe177"/>
        <path id="Path_31224" data-name="Path 31224" d="M111.177,75.753q-1.627.14-3.293.141a37.947,37.947,0,1,1,0-75.893q1.664,0,3.293.141a37.948,37.948,0,0,0,0,75.611Z" transform="translate(-66.825 -0.001)" fill="#ffd15b"/>
        <circle id="Ellipse_1798" data-name="Ellipse 1798" cx="28.599" cy="28.599" r="28.599" transform="translate(12.46 9.348)" fill="#ffd15b"/>
        <path id="Path_31225" data-name="Path 31225" d="M272.032,74.432a28.614,28.614,0,0,1-31.819,28.419,28.6,28.6,0,0,0,0-56.838,28.888,28.888,0,0,1,3.22-.18A28.6,28.6,0,0,1,272.032,74.432Z" transform="translate(-202.374 -36.485)" fill="#fec165"/>
        <g id="Group_18752" data-name="Group 18752" transform="translate(22.539 20.182)">
          <path id="Path_31226" data-name="Path 31226" d="M186.47,100.671l3.339,6.766a3.077,3.077,0,0,0,2.317,1.683l7.467,1.085a3.077,3.077,0,0,1,1.705,5.249l-5.4,5.267a3.077,3.077,0,0,0-.885,2.724l1.275,7.437a3.077,3.077,0,0,1-4.465,3.244l-6.679-3.511a3.077,3.077,0,0,0-2.864,0l-6.678,3.511a3.077,3.077,0,0,1-4.465-3.244l1.275-7.437a3.077,3.077,0,0,0-.885-2.724l-5.4-5.267a3.077,3.077,0,0,1,1.705-5.249l7.467-1.085a3.077,3.077,0,0,0,2.317-1.683l3.339-6.766a3.077,3.077,0,0,1,5.519,0Z" transform="translate(-165.19 -98.956)" fill="#ffe177"/>
        </g>
      </g>
    </g>
  </g>
</svg>
