<svg xmlns="http://www.w3.org/2000/svg" width="22" height="19.556" viewBox="0 0 22 19.556">
  <g id="Group_18851" data-name="Group 18851" transform="translate(-176.5 -276)">
    <path id="Icon_awesome-map-marked-alt" data-name="Icon awesome-map-marked-alt" d="M11,0A4.812,4.812,0,0,0,6.188,4.813c0,2.149,3.145,6.065,4.35,7.487a.6.6,0,0,0,.924,0c1.205-1.422,4.35-5.338,4.35-7.487A4.812,4.812,0,0,0,11,0Zm0,6.417a1.6,1.6,0,1,1,1.6-1.6A1.6,1.6,0,0,1,11,6.417ZM.768,8.248A1.222,1.222,0,0,0,0,9.383v9.561a.611.611,0,0,0,.838.568l5.273-2.4v-8.9A11.567,11.567,0,0,1,5.3,6.436ZM11,13.737a1.825,1.825,0,0,1-1.394-.648c-.751-.886-1.55-1.9-2.272-2.93v6.951l7.333,2.444v-9.4c-.723,1.035-1.521,2.044-2.272,2.93A1.826,1.826,0,0,1,11,13.737ZM21.162,6.155l-5.273,2.4v11l5.343-2.137A1.222,1.222,0,0,0,22,16.284V6.723A.611.611,0,0,0,21.162,6.155Z" transform="translate(176.5 276)" fill="#0060af"/>
  </g>
</svg>
