<svg xmlns="http://www.w3.org/2000/svg" width="43.25" height="48.07" viewBox="0 0 43.25 48.07">
  <g id="Group_18793" data-name="Group 18793" transform="translate(-166 -291.941)">
    <g id="box" transform="translate(110.75 255.461)">
      <path id="Path_31" data-name="Path 31" d="M97.5,69.617V51.284a4.583,4.583,0,0,0-2.292-3.965L79.167,38.153a4.583,4.583,0,0,0-4.583,0L58.542,47.319a4.583,4.583,0,0,0-2.292,3.965V69.617a4.583,4.583,0,0,0,2.292,3.965l16.042,9.167a4.583,4.583,0,0,0,4.583,0l16.042-9.167A4.583,4.583,0,0,0,97.5,69.617Z" transform="translate(0)" fill="none" stroke="#0060af" stroke-linecap="round" stroke-linejoin="round" stroke-width="2"/>
      <path id="Path_32" data-name="Path 32" d="M61.313,130.5l20.006,11.573L101.325,130.5" transform="translate(-4.444 -81.6)" fill="none" stroke="#0060af" stroke-linecap="round" stroke-linejoin="round" stroke-width="2"/>
      <line id="Line_20" data-name="Line 20" y1="23.1" transform="translate(76.875 60.45)" fill="none" stroke="#0060af" stroke-linecap="round" stroke-linejoin="round" stroke-width="2"/>
    </g>
  </g>
</svg>
