<svg xmlns="http://www.w3.org/2000/svg" width="15" height="18.775" viewBox="0 0 15 18.775">
  <g id="Group_18822" data-name="Group 18822" transform="translate(-297 -53.225)">
    <g id="Icon_ionic-ios-notifications-outline" data-name="Icon ionic-ios-notifications-outline" transform="translate(290.226 49.295)">
      <path id="Path_31228" data-name="Path 31228" d="M20.37,28.336a.911.911,0,0,0-.893.717,1.762,1.762,0,0,1-.352.766,1.329,1.329,0,0,1-1.132.415,1.351,1.351,0,0,1-1.132-.415,1.762,1.762,0,0,1-.352-.766.911.911,0,0,0-.893-.717h0a.917.917,0,0,0-.893,1.118,3.142,3.142,0,0,0,3.27,2.609,3.136,3.136,0,0,0,3.27-2.609.92.92,0,0,0-.893-1.118Z" transform="translate(-3.729 -9.357)"/>
      <path id="Path_31229" data-name="Path 31229" d="M21.587,16.314c-.723-.848-2.144-1.346-2.144-5.145,0-3.9-1.933-5.467-3.735-5.843-.169-.038-.291-.088-.291-.247V4.959A1.09,1.09,0,0,0,14.29,3.93h-.028a1.09,1.09,0,0,0-1.126,1.028V5.08c0,.155-.122.209-.291.247-1.807.38-3.735,1.943-3.735,5.843,0,3.8-1.422,4.292-2.144,5.145a.827.827,0,0,0,.746,1.329H20.855A.826.826,0,0,0,21.587,16.314Zm-1.83.242H8.814a.182.182,0,0,1-.155-.305,5.03,5.03,0,0,0,.985-1.4,8.547,8.547,0,0,0,.671-3.686A5.87,5.87,0,0,1,11.3,7.541a3.041,3.041,0,0,1,1.816-1.153,1.7,1.7,0,0,0,.873-.439.4.4,0,0,1,.558-.008,1.762,1.762,0,0,0,.882.447,3.041,3.041,0,0,1,1.816,1.153,5.87,5.87,0,0,1,.981,3.628,8.547,8.547,0,0,0,.671,3.686A5.094,5.094,0,0,0,19.9,16.272.172.172,0,0,1,19.757,16.556Z" transform="translate(0 0)"/>
    </g>
  </g>
</svg>
