<svg xmlns="http://www.w3.org/2000/svg" width="15.2" height="16" viewBox="0 0 15.2 16">
  <path id="Vector" d="M11.135,3.576H11.3a3.96,3.96,0,0,1,3.9,4.008V12a3.953,3.953,0,0,1-3.9,4H3.9A3.953,3.953,0,0,1,0,12V7.584A3.96,3.96,0,0,1,3.9,3.576h.164A3.654,3.654,0,0,1,5.111,1.048,3.531,3.531,0,0,1,7.608,0,3.575,3.575,0,0,1,11.135,3.576ZM5.93,1.9a2.463,2.463,0,0,0-.694,1.672H9.964A2.355,2.355,0,0,0,5.93,1.9Zm4.635,4.752a.592.592,0,0,0,.585-.6V5.128a.585.585,0,1,0-1.17,0v.928A.6.6,0,0,0,10.565,6.656Zm-5.415-.6a.585.585,0,1,1-1.17,0V5.128a.585.585,0,1,1,1.17,0Z" fill="#0060af"/>
</svg>
