<svg xmlns="http://www.w3.org/2000/svg" width="24" height="17" viewBox="0 0 24 17">
  <path id="Path_31012" data-name="Path 31012" d="M21.714,11.106H19.143V8.553A2.562,2.562,0,0,0,16.571,6h-12A2.562,2.562,0,0,0,2,8.553V20.467a.854.854,0,0,0,.857.851H5.583a2.578,2.578,0,0,0,4.834,0H19.3a2.578,2.578,0,0,0,4.834,0h1.011A.854.854,0,0,0,26,20.467V15.361A4.27,4.27,0,0,0,21.714,11.106ZM8,21.318a.851.851,0,1,1,.857-.851A.854.854,0,0,1,8,21.318Zm9.429-1.7H10.417a2.578,2.578,0,0,0-4.834,0H3.714V17.063H17.429Zm0-4.255H3.714V8.553A.854.854,0,0,1,4.571,7.7h12a.854.854,0,0,1,.857.851Zm4.286,5.957a.851.851,0,1,1,.857-.851A.854.854,0,0,1,21.714,21.318Zm2.571-1.7h-.154a2.578,2.578,0,0,0-4.834,0h-.154V12.808H20v3.4a.854.854,0,0,0,.857.851h3.429Zm-2.571-4.255V12.808a2.562,2.562,0,0,1,2.571,2.553Z" transform="translate(-2 -6)" fill="#999"/>
</svg>
