<svg xmlns="http://www.w3.org/2000/svg" width="11.742" height="13.334" viewBox="0 0 11.742 13.334">
  <g id="Group_18830" data-name="Group 18830" transform="translate(-38.129 -377.793)">
    <path id="Path_31192" data-name="Path 31192" d="M30.422,123h3.156l-.094-.749a.666.666,0,0,0-.661-.584H31.177a.666.666,0,0,0-.662.584Zm4.5,0a2.9,2.9,0,0,1,1.472.246,1.812,1.812,0,0,1,.753.707,2.931,2.931,0,0,1,.339,1.472l.382,6.117A2,2,0,0,1,36,133.663c-.042,0-.083,0-.125,0H28.129a2,2,0,0,1-2-2c0-.042,0-.084,0-.125l.382-6.117a2.931,2.931,0,0,1,.338-1.472,1.812,1.812,0,0,1,.753-.707A2.9,2.9,0,0,1,29.078,123l.114-.915a2,2,0,0,1,1.985-1.752h1.646a2,2,0,0,1,1.984,1.752Z" transform="translate(12 257.46)" fill="#fff"/>
  </g>
</svg>
