<svg xmlns="http://www.w3.org/2000/svg" width="15.369" height="15.396" viewBox="0 0 15.369 15.396">
  <path id="phone-call" d="M8.994,2.834a3.351,3.351,0,0,1,2.647,2.647M8.994.153a6.032,6.032,0,0,1,5.328,5.322m-.67,5.348v2.011a1.34,1.34,0,0,1-1.461,1.34,13.264,13.264,0,0,1-5.784-2.058A13.07,13.07,0,0,1,2.385,8.095,13.264,13.264,0,0,1,.328,2.284,1.34,1.34,0,0,1,1.662.823H3.672a1.34,1.34,0,0,1,1.34,1.153,8.606,8.606,0,0,0,.469,1.883,1.34,1.34,0,0,1-.3,1.414l-.851.851a10.724,10.724,0,0,0,4.021,4.021L9.2,9.295a1.34,1.34,0,0,1,1.414-.3,8.606,8.606,0,0,0,1.883.469,1.34,1.34,0,0,1,1.153,1.361Z" transform="translate(0.328 0.565)" fill="none" stroke="#adb5bd" stroke-linecap="round" stroke-linejoin="round" stroke-width="1.3"/>
</svg>
