<svg xmlns="http://www.w3.org/2000/svg" width="16.312" height="14.68" viewBox="0 0 16.312 14.68">
  <g id="Group_18823" data-name="Group 18823" transform="translate(-42 -583)">
    <path id="Ticket_Star" data-name="Ticket Star" d="M17.732,6.179a3.368,3.368,0,0,1,3.379,3.348V11.71a.6.6,0,0,1-.179.428.614.614,0,0,1-.433.178,1.2,1.2,0,1,0,0,2.407.609.609,0,0,1,.612.606v2.183a3.366,3.366,0,0,1-3.378,3.347H8.179A3.367,3.367,0,0,1,4.8,17.512V15.329a.609.609,0,0,1,.612-.606,1.21,1.21,0,0,0,1.215-1.2,1.15,1.15,0,0,0-1.215-1.133.613.613,0,0,1-.432-.178.6.6,0,0,1-.179-.428l0-2.254A3.367,3.367,0,0,1,8.18,6.179Zm-4.774,4.2a.6.6,0,0,0-.542.333l-.595,1.194-1.326.192a.6.6,0,0,0-.489.406.59.59,0,0,0,.153.614l.962.928-.227,1.312a.593.593,0,0,0,.241.586.611.611,0,0,0,.354.114.6.6,0,0,0,.28-.07l1.189-.619,1.187.617a.6.6,0,0,0,.636-.044.59.59,0,0,0,.241-.585l-.228-1.312.962-.928a.587.587,0,0,0,.153-.614.6.6,0,0,0-.486-.4l-1.329-.192L13.5,10.716A.6.6,0,0,0,12.957,10.382Z" transform="translate(37.2 576.821)" fill="#0060af"/>
  </g>
</svg>
