<svg xmlns="http://www.w3.org/2000/svg" width="14.911" height="15.5" viewBox="0 0 14.911 15.5">
  <g id="Group_18841" data-name="Group 18841" transform="translate(-341 -172)">
    <g id="Group_18602" data-name="Group 18602" transform="translate(340.381 172.005)">
      <g id="Page-1" transform="translate(0.619 -0.005)">
        <g id="_017---Box-of-Points" data-name="017---Box-of-Points">
          <path id="Shape" d="M5,30v7.355a.525.525,0,0,0,.525.525H17.084a.525.525,0,0,0,.525-.525V30Z" transform="translate(-3.849 -22.381)" fill="#a56a43"/>
          <path id="Shape-2" data-name="Shape" d="M35.3,30v7.355a.527.527,0,0,1-.525.525H29V30Z" transform="translate(-21.544 -22.381)" fill="#cb8252"/>
          <path id="Shape-3" data-name="Shape" d="M20.561,2.271l.62,1.307a.464.464,0,0,0,.347.263l1.375.208a.494.494,0,0,1,.254.833l-.986,1a.5.5,0,0,0-.135.434l.234,1.419a.467.467,0,0,1-.667.515l-1.243-.679a.439.439,0,0,0-.425,0l-1.243.679a.467.467,0,0,1-.667-.515l.234-1.419a.5.5,0,0,0-.135-.434l-.987-1a.494.494,0,0,1,.254-.833l1.375-.208a.464.464,0,0,0,.347-.263l.62-1.306a.451.451,0,0,1,.825,0Z" transform="translate(-12.693 -1.738)" fill="#f3d55b"/>
          <path id="Shape-4" data-name="Shape" d="M25.035,6.156a.508.508,0,0,0-.137.435l.236,1.419a.468.468,0,0,1-.668.517l-1.243-.68a.447.447,0,0,0-.425,0l-1.242.681a.469.469,0,0,1-.668-.517l.053-.313c3.121-1.888,2.635-4.445,2.351-5.321a.49.49,0,0,1,.131.17l.619,1.307a.47.47,0,0,0,.349.263l1.374.208a.494.494,0,0,1,.254.832Z" transform="translate(-15.557 -2.013)" fill="#f0c419"/>
          <path id="Shape-5" data-name="Shape" d="M43.78,14.136l.31.654a.232.232,0,0,0,.174.131l.688.1a.247.247,0,0,1,.127.416l-.493.5a.251.251,0,0,0-.068.217l.117.709a.234.234,0,0,1-.333.258l-.622-.338a.219.219,0,0,0-.212,0l-.62.34a.234.234,0,0,1-.334-.258l.117-.709a.251.251,0,0,0-.068-.217l-.493-.5a.247.247,0,0,1,.127-.416l.688-.1a.232.232,0,0,0,.174-.131l.31-.653a.225.225,0,0,1,.413,0Z" transform="translate(-31.128 -10.586)" fill="#f3d55b"/>
          <path id="Shape-6" data-name="Shape" d="M46.016,16.079a.254.254,0,0,0-.068.218l.118.709a.234.234,0,0,1-.334.258l-.622-.34a.224.224,0,0,0-.212,0l-.621.341a.234.234,0,0,1-.334-.258l.026-.158a2.2,2.2,0,0,0,1.176-2.66.245.245,0,0,1,.065.085l.311.653a.236.236,0,0,0,.174.131l.687.105a.247.247,0,0,1,.127.416Z" transform="translate(-32.558 -10.723)" fill="#f0c419"/>
          <path id="Shape-7" data-name="Shape" d="M5.78,14.135l.31.654a.232.232,0,0,0,.174.131l.688.1a.247.247,0,0,1,.127.416l-.494.5a.252.252,0,0,0-.067.217l.117.709a.234.234,0,0,1-.333.258l-.622-.338a.219.219,0,0,0-.212,0l-.62.34a.234.234,0,0,1-.334-.258l.117-.709a.252.252,0,0,0-.068-.217l-.493-.5a.247.247,0,0,1,.127-.416l.688-.105a.232.232,0,0,0,.174-.131l.31-.653a.225.225,0,0,1,.413,0Z" transform="translate(-3.11 -10.584)" fill="#f3d55b"/>
          <path id="Shape-8" data-name="Shape" d="M8.018,16.079a.254.254,0,0,0-.068.218l.118.709a.234.234,0,0,1-.334.258l-.622-.34a.224.224,0,0,0-.212,0l-.62.341a.234.234,0,0,1-.334-.258l.026-.158a2.2,2.2,0,0,0,1.176-2.66.245.245,0,0,1,.065.085l.31.653a.236.236,0,0,0,.174.131l.687.105a.247.247,0,0,1,.127.416Z" transform="translate(-4.542 -10.723)" fill="#f0c419"/>
          <path id="Shape-9" data-name="Shape" d="M6.6,32.627H.881a.263.263,0,0,1-.235-.38l1.051-2.1A.263.263,0,0,1,1.932,30H8.074L6.833,32.482a.263.263,0,0,1-.235.145Z" transform="translate(-0.619 -22.381)" fill="#cb8252"/>
          <path id="Shape-10" data-name="Shape" d="M30.476,32.627h5.717a.263.263,0,0,0,.235-.38l-1.051-2.1A.263.263,0,0,0,35.142,30H29l1.241,2.482A.263.263,0,0,0,30.476,32.627Z" transform="translate(-21.544 -22.381)" fill="#cf976a"/>
          <g id="Group_18584" data-name="Group 18584" transform="translate(4.044)">
            <path id="Shape-11" data-name="Shape" d="M20.522,2.047a.263.263,0,0,1-.236-.145l-.263-.525a.264.264,0,0,1,.473-.235l.263.525a.263.263,0,0,1-.236.38Z" transform="translate(-18.949 -0.995)" fill="#f29c1f"/>
            <path id="Shape-12" data-name="Shape" d="M16.534,4.8a.263.263,0,0,1-.186-.077l-.263-.263a.263.263,0,0,1,.371-.371l.263.263a.263.263,0,0,1-.186.448Z" transform="translate(-16.012 -3.22)" fill="#f29c1f"/>
            <path id="Shape-13" data-name="Shape" d="M35.259,2.05a.263.263,0,0,1-.236-.38l.263-.525a.263.263,0,1,1,.47.235l-.263.525A.263.263,0,0,1,35.259,2.05Z" transform="translate(-30.008 -0.998)" fill="#f29c1f"/>
            <path id="Shape-14" data-name="Shape" d="M39.263,4.779a.263.263,0,0,1-.186-.448l.263-.263a.263.263,0,1,1,.371.371l-.263.263a.263.263,0,0,1-.186.077Z" transform="translate(-32.962 -3.202)" fill="#f29c1f"/>
          </g>
        </g>
      </g>
    </g>
  </g>
</svg>
