<svg xmlns="http://www.w3.org/2000/svg" width="13.314" height="15.664" viewBox="0 0 13.314 15.664">
  <g id="Group_18789" data-name="Group 18789" transform="translate(-43.533 -419.392)">
    <path id="Shield_Done" data-name="Shield Done" d="M14.63,5.008l5.2,1.744a1.417,1.417,0,0,1,.978,1.328l.033,5.2a6.458,6.458,0,0,1-1.617,4.3,6.612,6.612,0,0,1-1.9,1.445l-2.794,1.494a.613.613,0,0,1-.281.071.6.6,0,0,1-.281-.068l-2.82-1.459a6.629,6.629,0,0,1-1.916-1.423,6.46,6.46,0,0,1-1.675-4.287l-.033-5.2a1.419,1.419,0,0,1,.962-1.34l5.179-1.806A1.479,1.479,0,0,1,14.63,5.008Zm2.486,5.576a.6.6,0,0,0-.837,0l-2.638,2.6-1.08-1.038a.6.6,0,0,0-.837.005.565.565,0,0,0,.006.814l1.5,1.444a.6.6,0,0,0,.837-.005l3.054-3.01A.565.565,0,0,0,17.116,10.583Z" transform="translate(36.006 414.462)" fill="#0060af"/>
  </g>
</svg>
