<svg xmlns="http://www.w3.org/2000/svg" width="19.783" height="19.783" viewBox="0 0 19.783 19.783">
  <g id="Group_18550" data-name="Group 18550" transform="translate(-2.25 -2.25)">
    <path id="Path_30998" data-name="Path 30998" d="M18.589,22.033H5.7A3.451,3.451,0,0,1,2.25,18.583V5.694A3.451,3.451,0,0,1,5.7,2.25H18.589a3.444,3.444,0,0,1,3.444,3.444V18.583a3.451,3.451,0,0,1-3.444,3.451ZM5.7,3.872A1.823,1.823,0,0,0,3.872,5.694V18.583A1.829,1.829,0,0,0,5.7,20.412H18.589a1.823,1.823,0,0,0,1.823-1.829V5.694a1.823,1.823,0,0,0-1.823-1.823Z" transform="translate(0 0)" fill="#999"/>
    <path id="Path_30999" data-name="Path 30999" d="M11.844,12.952a1.57,1.57,0,0,1-.649-.143,1.615,1.615,0,0,1-.947-1.485V3.061a.811.811,0,1,1,1.622,0v8.264l1.524-1.349a1.563,1.563,0,0,1,2.082,0l1.563,1.356-.052-8.27a.811.811,0,0,1,1.622,0v8.264a1.615,1.615,0,0,1-.947,1.485,1.563,1.563,0,0,1-1.693-.253l-1.544-1.336-1.544,1.343A1.563,1.563,0,0,1,11.844,12.952ZM14.4,11.2ZM14.458,11.2Zm.941,6.824H9.561a.811.811,0,0,1,0-1.622H15.4a.811.811,0,1,1,0,1.622Z" transform="translate(-2.284 0)" fill="#999"/>
  </g>
</svg>
