<svg xmlns="http://www.w3.org/2000/svg" width="22" height="22" viewBox="0 0 22 22">
  <g id="Group_18850" data-name="Group 18850" transform="translate(-142.1 -763)">
    <g id="Icon_ionic-ios-help-circle-outline" data-name="Icon ionic-ios-help-circle-outline" transform="translate(142.1 763)">
      <path id="Path_31250" data-name="Path 31250" d="M14.375,4.856A9.515,9.515,0,1,1,7.643,7.643a9.456,9.456,0,0,1,6.732-2.787m0-1.481a11,11,0,1,0,11,11,11,11,0,0,0-11-11Z" transform="translate(-3.375 -3.375)" fill="#adb5bd"/>
      <path id="Path_31251" data-name="Path 31251" d="M18.049,11.25c2.637,0,4.451,1.679,4.451,4.093a4.036,4.036,0,0,1-1.976,3.584c-1.223.815-1.638,1.413-1.638,2.446v.638h-2.44l-.021-.694a3.5,3.5,0,0,1,1.659-3.552c1.188-.815,1.688-1.332,1.688-2.333A1.79,1.79,0,0,0,17.88,13.7,1.9,1.9,0,0,0,16,15.682H13.5A4.25,4.25,0,0,1,18.049,11.25ZM16.2,25.087a1.515,1.515,0,1,1,1.5,1.663A1.584,1.584,0,0,1,16.2,25.087Z" transform="translate(-7 -8)" fill="#adb5bd"/>
    </g>
  </g>
</svg>
