<svg xmlns="http://www.w3.org/2000/svg" width="13" height="15.294" viewBox="0 0 13 15.294">
  <g id="Group_18775" data-name="Group 18775" transform="translate(-42 -534)">
    <path id="Paper" d="M15.16,4.719a.349.349,0,0,1,.348.352V7.533a2.561,2.561,0,0,0,2.529,2.554c.575,0,1.03.008,1.378.008h.129c.233,0,.546-.007.817-.007a.341.341,0,0,1,.341.344V16.58a3.416,3.416,0,0,1-3.4,3.434H11.275a3.592,3.592,0,0,1-3.574-3.6V8.168a3.438,3.438,0,0,1,3.415-3.449Zm.81,9.865H11.851a.568.568,0,0,0-.568.566.575.575,0,0,0,.568.574H15.97a.575.575,0,0,0,.568-.574A.568.568,0,0,0,15.97,14.584Zm-1.56-3.824H11.851a.575.575,0,0,0-.568.574.568.568,0,0,0,.568.566H14.41a.568.568,0,0,0,.568-.566A.575.575,0,0,0,14.41,10.761Zm2.2-5.348a.362.362,0,0,1,.622-.255l3.048,3.2a.365.365,0,0,1-.26.617c-.622,0-1.356,0-1.884-.005a1.543,1.543,0,0,1-1.527-1.542Z" transform="translate(34.298 529.281)" fill="#979797"/>
  </g>
</svg>
